<svg xmlns="http://www.w3.org/2000/svg" viewBox="0 0 738 278" width="738" height="278" role="img"><rect width="738" height="278" fill="#f8fafc"/><path d="M234 139 C249 139 249 139 264 139" fill="none" stroke="#6366f1" stroke-width="1.5"/><path d="M474 139 C489 139 489 39 504 39" fill="none" stroke="#6366f1" stroke-width="1.5"/><path d="M474 139 C489 139 489 79 504 79" fill="none" stroke="#10b981" stroke-width="1.5"/><path d="M474 139 C489 139 489 119 504 119" fill="none" stroke="#cbd5e1" stroke-width="1.5"/><path d="M474 139 C489 139 489 159 504 159" fill="none" stroke="#cbd5e1" stroke-width="1.5"/><path d="M474 139 C489 139 489 199 504 199" fill="none" stroke="#cbd5e1" stroke-width="1.5"/><path d="M474 139 C489 139 489 239 504 239" fill="none" stroke="#cbd5e1" stroke-width="1.5"/><rect x="24" y="124" width="210" height="30" rx="8" fill="#1e293b" stroke="#1e293b" stroke-width="2"/><text x="34" y="143" font-family="system-ui, sans-serif" font-size="12" font-weight="700" fill="#f8fafc">Two border stars — how shoul…</text><rect x="264" y="124" width="210" height="30" rx="8" fill="#0f172a" stroke="#6366f1" stroke-width="2"/><text x="274" y="143" font-family="system-ui, sans-serif" font-size="12" font-weight="700" fill="#f8fafc">Round 1 · diverge</text><rect x="504" y="24" width="210" height="30" rx="8" fill="#eef2ff" stroke="#6366f1" stroke-width="2"/><text x="514" y="43" font-family="system-ui, sans-serif" font-size="12" font-weight="500" fill="#3730a3">Iterated</text><rect x="504" y="64" width="210" height="30" rx="8" fill="#dcfce7" stroke="#10b981" stroke-width="2"/><text x="514" y="83" font-family="system-ui, sans-serif" font-size="12" font-weight="500" fill="#065f46">✓ Gentle Handoff</text><rect x="504" y="104" width="210" height="30" rx="8" fill="#f1f5f9" stroke="#cbd5e1" stroke-width="2"/><text x="514" y="123" font-family="system-ui, sans-serif" font-size="12" font-weight="500" fill="#94a3b8">✕ Lockstep Lead-Follow</text><rect x="504" y="144" width="210" height="30" rx="8" fill="#f1f5f9" stroke="#cbd5e1" stroke-width="2"/><text x="514" y="163" font-family="system-ui, sans-serif" font-size="12" font-weight="500" fill="#94a3b8">✕ Merge Into One</text><rect x="504" y="184" width="210" height="30" rx="8" fill="#f1f5f9" stroke="#cbd5e1" stroke-width="2"/><text x="514" y="203" font-family="system-ui, sans-serif" font-size="12" font-weight="500" fill="#94a3b8">✕ Keep the Glow, Drop the Pu…</text><rect x="504" y="224" width="210" height="30" rx="8" fill="#f1f5f9" stroke="#cbd5e1" stroke-width="2"/><text x="514" y="243" font-family="system-ui, sans-serif" font-size="12" font-weight="500" fill="#94a3b8">✕ Calm Afterglow</text></svg>