<svg xmlns="http://www.w3.org/2000/svg" viewBox="0 0 160 120"><defs><linearGradient id="dp-tail" gradientUnits="userSpaceOnUse" x1="20" y1="12" x2="37" y2="30"><stop offset="0" stop-color="#a855f7" stop-opacity="0"/><stop offset="0.55" stop-color="#c084fc" stop-opacity="0.85"/><stop offset="1" stop-color="#e75af2" stop-opacity="0.55"/></linearGradient></defs><rect x="0" y="0" width="160" height="120" rx="6" fill="#3b2141"/><rect x="8" y="12" width="28" height="96" rx="7" fill="#ffffff" fill-opacity="0.035"/><circle cx="22" cy="52" r="1.8" fill="#f0efeb" fill-opacity="0.2"/><circle cx="22" cy="66" r="1.8" fill="#f0efeb" fill-opacity="0.2"/><circle cx="22" cy="80" r="1.8" fill="#f0efeb" fill-opacity="0.2"/><rect x="46" y="14" width="104" height="22" rx="4" fill="#ffffff" fill-opacity="0.05" stroke="#f0efeb" stroke-opacity="0.12"/><rect x="46" y="40" width="104" height="22" rx="4" fill="#ffffff" fill-opacity="0.05" stroke="#f0efeb" stroke-opacity="0.12"/><rect x="46" y="66" width="104" height="22" rx="4" fill="#ffffff" fill-opacity="0.05" stroke="#f0efeb" stroke-opacity="0.12"/><rect x="46" y="94" width="104" height="12" rx="3" fill="#ffffff" fill-opacity="0.04" stroke="#f0efeb" stroke-opacity="0.1"/><path d="M15 12 H29 A7 7 0 0 1 36 19 V101 A7 7 0 0 1 29 108 H15 A7 7 0 0 1 8 101 V19 A7 7 0 0 1 15 12 Z" fill="none" stroke="#a855f7" stroke-opacity="0.15" stroke-width="1.5"/><path d="M20 12 H29 A7 7 0 0 1 36 19 V30" fill="none" stroke="#c084fc" stroke-opacity="0.18" stroke-width="10" stroke-linecap="round"/><path d="M20 12 H29 A7 7 0 0 1 36 19 V30" fill="none" stroke="url(#dp-tail)" stroke-width="4.5" stroke-linecap="round"/><circle cx="36" cy="40" r="3" fill="none" stroke="#c084fc" stroke-opacity="0.4" stroke-dasharray="1.5 1.5"/><line x1="33.5" y1="42.5" x2="38.5" y2="37.5" stroke="#c084fc" stroke-opacity="0.5"/><text x="41" y="41" font-family="sans-serif" font-size="3.2" fill="#f0efeb" fill-opacity="0.45">drop later</text><text x="9" y="116" font-family="sans-serif" font-size="4" fill="#f0efeb" fill-opacity="0.55">keep the glow only</text></svg>