<svg xmlns="http://www.w3.org/2000/svg" viewBox="0 0 160 120"><defs><radialGradient id="lk-head" cx="50%" cy="50%" r="50%"><stop offset="0" stop-color="#ffffff"/><stop offset="40%" stop-color="#e75af2"/><stop offset="100%" stop-color="#e75af2" stop-opacity="0"/></radialGradient><linearGradient id="lk-tail" gradientUnits="userSpaceOnUse" x1="22" y1="12" x2="37" y2="28"><stop offset="0" stop-color="#a855f7" stop-opacity="0"/><stop offset="0.55" stop-color="#e75af2" stop-opacity="0.9"/><stop offset="1" stop-color="#c084fc" stop-opacity="0.35"/></linearGradient></defs><rect x="0" y="0" width="160" height="120" rx="6" fill="#3b2141"/><rect x="8" y="12" width="28" height="96" rx="7" fill="#ffffff" fill-opacity="0.035"/><circle cx="22" cy="52" r="1.8" fill="#f0efeb" fill-opacity="0.2"/><circle cx="22" cy="66" r="1.8" fill="#f0efeb" fill-opacity="0.2"/><circle cx="22" cy="80" r="1.8" fill="#f0efeb" fill-opacity="0.2"/><rect x="46" y="14" width="104" height="22" rx="4" fill="#ffffff" fill-opacity="0.05" stroke="#f0efeb" stroke-opacity="0.12"/><rect x="46" y="40" width="104" height="22" rx="4" fill="#ffffff" fill-opacity="0.05" stroke="#f0efeb" stroke-opacity="0.12"/><rect x="46" y="66" width="104" height="22" rx="4" fill="#ffffff" fill-opacity="0.05" stroke="#f0efeb" stroke-opacity="0.12"/><rect x="46" y="94" width="104" height="12" rx="3" fill="#ffffff" fill-opacity="0.04" stroke="#f0efeb" stroke-opacity="0.1"/><path d="M15 12 H29 A7 7 0 0 1 36 19 V101 A7 7 0 0 1 29 108 H15 A7 7 0 0 1 8 101 V19 A7 7 0 0 1 15 12 Z" fill="none" stroke="#a855f7" stroke-opacity="0.15" stroke-width="1.5"/><path d="M22 12 H29 A7 7 0 0 1 36 19 V27" fill="none" stroke="#c084fc" stroke-opacity="0.18" stroke-width="9" stroke-linecap="round"/><path d="M22 12 H29 A7 7 0 0 1 36 19 V27" fill="none" stroke="url(#lk-tail)" stroke-width="4" stroke-linecap="round"/><line x1="36" y1="27" x2="36" y2="31" stroke="#c084fc" stroke-opacity="0.5" stroke-dasharray="1 1.5"/><circle cx="36" cy="33" r="6" fill="url(#lk-head)"/><circle cx="36" cy="33" r="2.2" fill="#ffffff"/><path d="M33 38 L36 41 L39 38" fill="none" stroke="#f0efeb" stroke-opacity="0.45" stroke-width="1.2" stroke-linecap="round" stroke-linejoin="round"/><text x="40" y="34" font-family="sans-serif" font-size="3.2" fill="#f0efeb" fill-opacity="0.45">lead</text><text x="40" y="18" font-family="sans-serif" font-size="3.2" fill="#c084fc" fill-opacity="0.55">glow</text><text x="9" y="116" font-family="sans-serif" font-size="4" fill="#f0efeb" fill-opacity="0.55">same speed · locked</text></svg>