<svg xmlns="http://www.w3.org/2000/svg" viewBox="0 0 160 120"><defs><radialGradient id="ag-head" cx="50%" cy="50%" r="50%"><stop offset="0" stop-color="#ffffff"/><stop offset="42%" stop-color="#e75af2"/><stop offset="100%" stop-color="#e75af2" stop-opacity="0"/></radialGradient><linearGradient id="ag-tail" gradientUnits="userSpaceOnUse" x1="17" y1="12" x2="37" y2="46"><stop offset="0" stop-color="#3b2141" stop-opacity="0"/><stop offset="0.4" stop-color="#a855f7" stop-opacity="0.2"/><stop offset="0.75" stop-color="#c084fc" stop-opacity="0.55"/><stop offset="1" stop-color="#e75af2" stop-opacity="0.9"/></linearGradient></defs><rect x="0" y="0" width="160" height="120" rx="6" fill="#3b2141"/><rect x="8" y="12" width="28" height="96" rx="7" fill="#ffffff" fill-opacity="0.035"/><circle cx="22" cy="66" r="1.8" fill="#f0efeb" fill-opacity="0.2"/><circle cx="22" cy="80" r="1.8" fill="#f0efeb" fill-opacity="0.2"/><rect x="46" y="14" width="104" height="22" rx="4" fill="#ffffff" fill-opacity="0.05" stroke="#f0efeb" stroke-opacity="0.12"/><rect x="46" y="40" width="104" height="22" rx="4" fill="#ffffff" fill-opacity="0.05" stroke="#f0efeb" stroke-opacity="0.12"/><rect x="46" y="66" width="104" height="22" rx="4" fill="#ffffff" fill-opacity="0.05" stroke="#f0efeb" stroke-opacity="0.12"/><rect x="46" y="94" width="104" height="12" rx="3" fill="#ffffff" fill-opacity="0.04" stroke="#f0efeb" stroke-opacity="0.1"/><path d="M15 12 H29 A7 7 0 0 1 36 19 V101 A7 7 0 0 1 29 108 H15 A7 7 0 0 1 8 101 V19 A7 7 0 0 1 15 12 Z" fill="none" stroke="#a855f7" stroke-opacity="0.12" stroke-width="1.5"/><path d="M17 12 H29 A7 7 0 0 1 36 19 V44" fill="none" stroke="url(#ag-tail)" stroke-width="4.5" stroke-linecap="round"/><circle cx="36" cy="47" r="6" fill="url(#ag-head)"/><circle cx="36" cy="47" r="2.2" fill="#ffffff"/><path d="M33 52 L36 55 L39 52" fill="none" stroke="#f0efeb" stroke-opacity="0.45" stroke-width="1.2" stroke-linecap="round" stroke-linejoin="round"/><path d="M14 96 A5 5 0 1 1 11.5 91.5" fill="none" stroke="#c084fc" stroke-opacity="0.4" stroke-dasharray="1.5 1.5"/><path d="M11 92 L11.8 91.2 L12.6 92.2" fill="none" stroke="#c084fc" stroke-opacity="0.5" stroke-linecap="round" stroke-linejoin="round"/><text x="9" y="116" font-family="sans-serif" font-size="4" fill="#f0efeb" fill-opacity="0.55">re-lights next lap</text></svg>