<svg xmlns="http://www.w3.org/2000/svg" viewBox="0 0 160 120"><defs><radialGradient id="tm-head" cx="50%" cy="50%" r="50%"><stop offset="0" stop-color="#ffffff"/><stop offset="45%" stop-color="#e75af2"/><stop offset="100%" stop-color="#e75af2" stop-opacity="0"/></radialGradient><linearGradient id="tm-body" gradientUnits="userSpaceOnUse" x1="20" y1="12" x2="37" y2="32"><stop offset="0" stop-color="#a855f7" stop-opacity="0.15"/><stop offset="0.5" stop-color="#e75af2" stop-opacity="0.85"/><stop offset="1" stop-color="#ffffff" stop-opacity="0.9"/></linearGradient></defs><rect x="0" y="0" width="160" height="120" rx="6" fill="#3b2141"/><rect x="8" y="12" width="28" height="96" rx="7" fill="#ffffff" fill-opacity="0.035"/><rect x="46" y="14" width="104" height="22" rx="4" fill="#ffffff" fill-opacity="0.05" stroke="#f0efeb" stroke-opacity="0.12"/><rect x="46" y="40" width="104" height="22" rx="4" fill="#ffffff" fill-opacity="0.05" stroke="#f0efeb" stroke-opacity="0.12"/><rect x="46" y="66" width="104" height="22" rx="4" fill="#ffffff" fill-opacity="0.05" stroke="#f0efeb" stroke-opacity="0.12"/><rect x="46" y="94" width="104" height="12" rx="3" fill="#ffffff" fill-opacity="0.04" stroke="#f0efeb" stroke-opacity="0.1"/><path d="M15 12 H29 A7 7 0 0 1 36 19 V101 A7 7 0 0 1 29 108 H15 A7 7 0 0 1 8 101 V19 A7 7 0 0 1 15 12 Z" fill="none" stroke="#a855f7" stroke-opacity="0.15" stroke-width="1.5"/><path d="M20 12 H29 A7 7 0 0 1 36 19 V31" fill="none" stroke="#c084fc" stroke-opacity="0.2" stroke-width="11" stroke-linecap="round"/><path d="M20 12 H29 A7 7 0 0 1 36 19 V31" fill="none" stroke="url(#tm-body)" stroke-width="5" stroke-linecap="round"/><circle cx="36" cy="31" r="6" fill="url(#tm-head)"/><circle cx="36" cy="31" r="2.3" fill="#ffffff"/><circle cx="16" cy="72" r="1.7" fill="#c084fc" fill-opacity="0.8"/><circle cx="16" cy="79" r="1.7" fill="#e75af2" fill-opacity="0.8"/><path d="M17.6 72.6 L23 75.5" fill="none" stroke="#f0efeb" stroke-opacity="0.4" stroke-linecap="round"/><path d="M17.6 78.4 L23 75.5" fill="none" stroke="#f0efeb" stroke-opacity="0.4" stroke-linecap="round"/><circle cx="24.5" cy="75.5" r="2" fill="#ffffff"/><text x="9" y="116" font-family="sans-serif" font-size="4" fill="#f0efeb" fill-opacity="0.55">two lights → one calm light</text></svg>