<svg xmlns="http://www.w3.org/2000/svg" viewBox="0 0 160 120"><defs><radialGradient id="sr-bloom" cx="50%" cy="50%" r="50%"><stop offset="0" stop-color="#e75af2" stop-opacity="0.85"/><stop offset="45%" stop-color="#c084fc" stop-opacity="0.5"/><stop offset="100%" stop-color="#a855f7" stop-opacity="0"/></radialGradient><linearGradient id="sr-streak" gradientUnits="userSpaceOnUse" x1="16" y1="12" x2="26" y2="12"><stop offset="0" stop-color="#ffffff" stop-opacity="0"/><stop offset="1" stop-color="#ffffff" stop-opacity="0.9"/></linearGradient><linearGradient id="sr-fade" gradientUnits="userSpaceOnUse" x1="36" y1="24" x2="36" y2="50"><stop offset="0" stop-color="#c084fc" stop-opacity="0.55"/><stop offset="1" stop-color="#c084fc" stop-opacity="0"/></linearGradient></defs><rect x="0" y="0" width="160" height="120" rx="6" fill="#3b2141"/><rect x="8" y="12" width="28" height="96" rx="7" fill="#ffffff" fill-opacity="0.035"/><circle cx="22" cy="66" r="1.8" fill="#f0efeb" fill-opacity="0.2"/><circle cx="22" cy="80" r="1.8" fill="#f0efeb" fill-opacity="0.2"/><rect x="46" y="14" width="104" height="22" rx="4" fill="#ffffff" fill-opacity="0.05" stroke="#f0efeb" stroke-opacity="0.12"/><rect x="46" y="40" width="104" height="22" rx="4" fill="#ffffff" fill-opacity="0.05" stroke="#f0efeb" stroke-opacity="0.12"/><rect x="46" y="66" width="104" height="22" rx="4" fill="#ffffff" fill-opacity="0.05" stroke="#f0efeb" stroke-opacity="0.12"/><rect x="46" y="94" width="104" height="12" rx="3" fill="#ffffff" fill-opacity="0.04" stroke="#f0efeb" stroke-opacity="0.1"/><path d="M15 12 H29 A7 7 0 0 1 36 19 V101 A7 7 0 0 1 29 108 H15 A7 7 0 0 1 8 101 V19 A7 7 0 0 1 15 12 Z" fill="none" stroke="#a855f7" stroke-opacity="0.12" stroke-width="1.5"/><path d="M16 12 H25" fill="none" stroke="url(#sr-streak)" stroke-width="2" stroke-linecap="round"/><circle cx="25" cy="12" r="1.8" fill="#ffffff"/><path d="M27 12 L30 14" fill="none" stroke="#f0efeb" stroke-opacity="0.4" stroke-linecap="round"/><circle cx="34" cy="18" r="9" fill="url(#sr-bloom)"/><path d="M27 12 H29 A7 7 0 0 1 36 19 V22" fill="none" stroke="#e75af2" stroke-opacity="0.55" stroke-width="3" stroke-linecap="round"/><path d="M36 24 V50" fill="none" stroke="url(#sr-fade)" stroke-width="3" stroke-linecap="round"/><text x="41" y="40" font-family="sans-serif" font-size="3.2" fill="#f0efeb" fill-opacity="0.4">then dark</text><text x="9" y="116" font-family="sans-serif" font-size="4" fill="#f0efeb" fill-opacity="0.55">gentle handoff</text></svg>