<svg xmlns="http://www.w3.org/2000/svg" viewBox="0 0 48 48" fill="none" stroke="currentColor" stroke-width="2.7" stroke-linecap="round" stroke-linejoin="round"><g transform="translate(0,10) scale(0.55)"><path d="M24 6a12 12 0 0 0-7 21.5c1.6 1.3 3 3 3 5v1.5h8V32.5c0-2 1.4-3.7 3-5A12 12 0 0 0 24 6Z" stroke="#a855f7"/><path d="M20 39h8M22 43h4"/></g><g transform="translate(21,14) scale(0.55)"><path d="M24 10v8M24 30v8M10 24h8M30 24h8" stroke="#a855f7"/><path d="M14 14l5.5 5.5M28.5 28.5 34 34M34 14l-5.5 5.5M19.5 28.5 14 34"/></g></svg>