<svg xmlns="http://www.w3.org/2000/svg" viewBox="0 0 760 190" font-family="system-ui,sans-serif">
  <defs>
    <marker id="arr" viewBox="0 0 8 8" refX="7" refY="4" markerWidth="7" markerHeight="7" orient="auto">
      <path d="M0 0 L8 4 L0 8 z" fill="#A855F7"/>
    </marker>
  </defs>
  <!-- 1 · open -->
  <g>
    <rect x="8" y="14" width="166" height="130" rx="10" fill="none" stroke="#9aa0aa" stroke-width="1.5"/>
    <rect x="24" y="30" width="134" height="66" rx="8" fill="none" stroke="#9aa0aa" stroke-dasharray="5 4"/>
    <path d="M38 78 l16 -16 l5 5 l-16 16 l-6 1 z" fill="none" stroke="#9aa0aa" stroke-width="1.5"/>
    <rect x="72" y="46" width="26" height="20" rx="2" fill="none" stroke="#9aa0aa" stroke-width="1.5"/>
    <path d="M74 62 l7 -8 l5 5 l4 -4 l6 7" fill="none" stroke="#9aa0aa" stroke-width="1.5"/>
    <rect x="112" y="46" width="10" height="18" rx="5" fill="none" stroke="#9aa0aa" stroke-width="1.5"/>
    <path d="M108 58 a9 9 0 0 0 18 0" fill="none" stroke="#9aa0aa" stroke-width="1.5"/>
    <rect x="28" y="106" width="40" height="14" rx="7" fill="none" stroke="#A855F7" stroke-width="1.6"/>
    <rect x="74" y="106" width="34" height="14" rx="7" fill="none" stroke="#9aa0aa" stroke-width="1.4"/>
    <rect x="114" y="106" width="40" height="14" rx="7" fill="none" stroke="#9aa0aa" stroke-width="1.4"/>
    <text x="91" y="166" font-size="12" font-weight="700" fill="#555b66" text-anchor="middle">1 · open with anything</text>
    <text x="91" y="181" font-size="10" fill="#8a909a" text-anchor="middle">scribble · photo · voice · chips</text>
  </g>
  <path d="M180 80 h18" stroke="#A855F7" stroke-width="2" marker-end="url(#arr)"/>
  <!-- 2 · judge -->
  <g>
    <rect x="204" y="14" width="166" height="130" rx="10" fill="none" stroke="#9aa0aa" stroke-width="1.5"/>
    <path d="M226 72 l10 10 M236 72 l-10 10" stroke="#ef4444" stroke-width="2" stroke-linecap="round" fill="none"/>
    <rect x="258" y="42" width="42" height="58" rx="5" fill="none" stroke="#9aa0aa" stroke-width="1.6"/>
    <rect x="264" y="36" width="42" height="58" rx="5" fill="none" stroke="#9aa0aa" stroke-width="1.6"/>
    <circle cx="285" cy="58" r="10" fill="none" stroke="#9aa0aa" stroke-width="1.5"/>
    <path d="M330 78 l12 5 l-12 5" stroke="#10b981" stroke-width="2" stroke-linecap="round" stroke-linejoin="round" fill="none"/>
    <rect x="230" y="108" width="54" height="12" rx="3" fill="none" stroke="#A855F7" stroke-width="1.6"/>
    <rect x="230" y="124" width="42" height="12" rx="3" fill="none" stroke="#9aa0aa" stroke-width="1.4"/>
    <text x="300" y="118" font-size="10" fill="#A855F7">vs</text>
    <rect x="312" y="106" width="20" height="26" rx="3" fill="none" stroke="#A855F7" stroke-width="1.6"/>
    <rect x="338" y="106" width="20" height="26" rx="3" fill="none" stroke="#9aa0aa" stroke-width="1.4"/>
    <text x="287" y="166" font-size="12" font-weight="700" fill="#555b66" text-anchor="middle">2 · judge deck</text>
    <text x="287" y="181" font-size="10" fill="#8a909a" text-anchor="middle">flick fast · duels rank the keeps</text>
  </g>
  <path d="M376 80 h18" stroke="#A855F7" stroke-width="2" marker-end="url(#arr)"/>
  <!-- 3 · navigate -->
  <g>
    <rect x="400" y="14" width="166" height="130" rx="10" fill="none" stroke="#9aa0aa" stroke-width="1.5"/>
    <rect x="414" y="32" width="24" height="22" rx="3" fill="none" stroke="#9aa0aa" stroke-width="1.5"/>
    <rect x="444" y="34" width="19" height="18" rx="3" fill="none" stroke="#9aa0aa" stroke-width="1.5"/>
    <rect x="469" y="36" width="15" height="14" rx="3" fill="none" stroke="#9aa0aa" stroke-width="1.5"/>
    <rect x="490" y="38" width="11" height="10" rx="2" fill="none" stroke="#A855F7" stroke-width="1.8"/>
    <path d="M424 54 v10 M452 54 v8" stroke="#9aa0aa" stroke-width="1.3"/>
    <rect x="415" y="64" width="18" height="22" rx="2" fill="none" stroke="#9aa0aa" stroke-width="1.4"/>
    <rect x="443" y="62" width="18" height="22" rx="2" fill="none" stroke="#A855F7" stroke-width="1.6"/>
    <path d="M466 74 q16 8 28 2" stroke="#A855F7" stroke-width="1.4" stroke-dasharray="3 3" fill="none"/>
    <rect x="508" y="30" width="44" height="20" rx="10" fill="none" stroke="#A855F7" stroke-width="1.8"/>
    <text x="530" y="44" font-size="9" fill="#A855F7" text-anchor="middle">next ⏎</text>
    <rect x="420" y="100" width="126" height="30" rx="4" fill="none" stroke="#9aa0aa" stroke-width="1.4"/>
    <path d="M428 110 h60 M428 120 h44" stroke="#9aa0aa" stroke-width="1.3"/>
    <text x="483" y="166" font-size="12" font-weight="700" fill="#555b66" text-anchor="middle">3 · wayfinder strip</text>
    <text x="483" y="181" font-size="10" fill="#8a909a" text-anchor="middle">jump rounds · drag keeps out · Enter</text>
  </g>
  <path d="M572 80 h18" stroke="#A855F7" stroke-width="2" marker-end="url(#arr)"/>
  <!-- 4 · crown & share -->
  <g>
    <rect x="596" y="14" width="156" height="130" rx="10" fill="none" stroke="#9aa0aa" stroke-width="1.5"/>
    <rect x="612" y="46" width="30" height="40" rx="3" fill="none" stroke="#A855F7" stroke-width="1.8"/>
    <path d="M617 42 l3 -9 l4 6 l3 -8 l3 8 l4 -6 l3 9 z" fill="none" stroke="#A855F7" stroke-width="1.8" stroke-linejoin="round"/>
    <circle cx="627" cy="62" r="8" fill="none" stroke="#9aa0aa" stroke-width="1.5"/>
    <rect x="656" y="40" width="82" height="56" rx="5" fill="none" stroke="#9aa0aa" stroke-width="1.5"/>
    <rect x="662" y="46" width="26" height="24" rx="2" fill="none" stroke="#A855F7" stroke-width="1.4"/>
    <path d="M694 50 h36 M694 60 h28 M694 70 h32 M662 78 v0 M662 80 h20 M688 80 h14" stroke="#9aa0aa" stroke-width="1.3"/>
    <path d="M700 104 h28 v14 a8 8 0 0 1 -16 0 z" fill="none" stroke="#9aa0aa" stroke-width="1.5"/>
    <path d="M668 110 q14 -12 28 0" stroke="#A855F7" stroke-width="1.4" stroke-dasharray="3 3" fill="none"/>
    <text x="674" y="166" font-size="12" font-weight="700" fill="#555b66" text-anchor="middle">4 · crown &amp; share</text>
    <text x="674" y="181" font-size="10" fill="#8a909a" text-anchor="middle">sudden death · decision poster to chat</text>
  </g>
</svg>
