<svg xmlns="http://www.w3.org/2000/svg" viewBox="0 0 48 48" fill="none" stroke="currentColor" stroke-width="2.5" stroke-linecap="round" stroke-linejoin="round"><path d="M17 9C11 9 8 14 9 18C10 21 12 22 12 25L22 25C22 22 24 21 25 18C26 14 23 9 17 9Z"/><path d="M14 25L20 25M15 28L19 28"/><path d="M14 17C15 15 19 15 20 17" stroke="#a855f7"/><path d="M31 13C37 12 42 15 41 21C40 27 33 29 28 26L24 29L26 24C25 20 27 15 31 13Z" stroke="#a855f7"/><circle cx="35" cy="20" r="1.3" fill="#a855f7" stroke="none"/></svg>