<svg xmlns="http://www.w3.org/2000/svg" viewBox="0 0 48 48" fill="none" stroke="currentColor" stroke-width="2.5" stroke-linecap="round" stroke-linejoin="round"><path d="M20 14C14 14 11 19 13 23C14 25 16 26 16 29L24 29C24 26 26 25 27 23C29 19 26 14 20 14Z"/><path d="M17 29L23 29M18 32L22 32"/><path d="M18 23C19 21 21 21 22 23" stroke="#a855f7"/><path d="M31 7C37 6 42 9 41 14C40 18 34 19 31 16L27 18L30 14C29 11 29 9 31 7Z" stroke="#a855f7"/><circle cx="35" cy="12" r="1.3" fill="#a855f7" stroke="none"/><path d="M20 9L20 6M11 13L9 11M29 12L31 10" stroke="#d8b4fe"/></svg>